<?xml version="1.0" encoding="UTF-8"?>
<svg version="1.1" xmlns="http://www.w3.org/2000/svg" width="512" height="512">
<path d="M0 0 C1.01823853 0.00215515 2.03647705 0.0043103 3.08557129 0.00653076 C17.70747424 0.05622604 32.00633932 0.36188758 46.375 3.3125 C47.89383789 3.61051514 47.89383789 3.61051514 49.44335938 3.91455078 C97.33223881 13.49089201 141.79848903 35.78506667 176.87475586 69.90942383 C178.93859956 71.83959628 181.16756034 73.55032168 183.375 75.3125 C184.47309154 76.46716769 185.5374861 77.65499631 186.5625 78.875 C189.33259955 82.1297174 192.19946722 85.25937713 195.125 88.375 C201.1093165 94.95684281 206.30422091 102.01172445 211.375 109.3125 C212.04184814 110.26672852 212.04184814 110.26672852 212.72216797 111.24023438 C225.77673454 130.10901967 235.95320481 150.62667186 243.375 172.3125 C243.64892578 173.0869043 243.92285156 173.86130859 244.20507812 174.65917969 C253.43500283 200.86994176 256.80341484 227.91222614 256.75 255.5625 C256.74918427 257.15105301 256.74918427 257.15105301 256.74835205 258.771698 C256.58274811 329.00962715 227.79894752 391.24474097 179.375 441.3125 C177.49561188 443.10564469 175.58592766 444.80348147 173.58984375 446.46484375 C171.84354723 447.9216308 170.13502023 449.42369359 168.44140625 450.94140625 C142.74643854 473.86658234 111.2138556 491.15538142 78.375 501.3125 C77.24118896 501.66368896 77.24118896 501.66368896 76.08447266 502.02197266 C67.56724042 504.61240769 58.97040003 506.71437025 50.25 508.5 C49.49976563 508.6549292 48.74953125 508.8098584 47.9765625 508.96948242 C32.3127607 512.02798624 16.98244069 512.71819876 1.0625 512.6875 C0.001521 512.68695618 -1.05945801 512.68641235 -2.15258789 512.68585205 C-18.6391791 512.64703011 -34.47176367 511.87963932 -50.625 508.3125 C-51.64835449 508.09287598 -52.67170898 507.87325195 -53.72607422 507.64697266 C-98.89354281 497.73831979 -139.94827683 476.50387258 -173.765625 444.92578125 C-175.74196714 443.11953413 -177.70890091 441.40114346 -179.77734375 439.7109375 C-182.08579368 437.76664634 -184.0079271 435.92353516 -185.9375 433.625 C-188.49457821 430.61568744 -191.12156708 427.70258138 -193.8125 424.8125 C-223.21842707 392.06725579 -242.23635664 350.92250253 -251.375 308.125 C-251.57383789 307.20017822 -251.77267578 306.27535645 -251.97753906 305.32250977 C-255.26941369 289.11581484 -256.0003085 273.18212105 -255.9375 256.6875 C-255.93534485 255.66959381 -255.9331897 254.65168762 -255.93096924 253.60293579 C-255.88129854 238.99386477 -255.63040191 224.66174147 -252.625 210.3125 C-252.42632324 209.33764648 -252.22764648 208.36279297 -252.02294922 207.35839844 C-241.77138226 158.35053302 -219.43217348 114.34635801 -184.625 78.3125 C-184.02606934 77.69165527 -183.42713867 77.07081055 -182.81005859 76.43115234 C-175.14623497 68.52999741 -167.40501606 60.98483045 -158.625 54.3125 C-158.08472168 53.89581055 -157.54444336 53.47912109 -156.98779297 53.04980469 C-125.1187531 28.55165293 -88.56685217 12.06060062 -49.1875 4 C-48.46860596 3.85264404 -47.74971191 3.70528809 -47.0090332 3.5534668 C-31.36274321 0.57960898 -15.88931915 -0.06049808 0 0 Z " fill="#AC2614" transform="translate(255.625,-0.3125)"/>
<path d="M0 0 C43.56 -0.12375 43.56 -0.12375 88 -0.25 C97.1678125 -0.28641602 106.335625 -0.32283203 115.78125 -0.36035156 C126.98046875 -0.37841797 126.98046875 -0.37841797 132.22412109 -0.3817749 C135.88470161 -0.38549996 139.54504984 -0.40048347 143.20556641 -0.42230225 C147.87825653 -0.44978425 152.55060997 -0.4579563 157.22337341 -0.4522891 C158.93608993 -0.45347375 160.64881849 -0.461379 162.36146545 -0.47686052 C179.52384964 -0.62476395 179.52384964 -0.62476395 185 4 C190.05983116 9.87856045 190.72052436 15.23495755 190.63491821 22.77880859 C190.64271817 23.84172308 190.65051812 24.90463757 190.65855443 25.99976158 C190.67844545 29.54967625 190.66272008 33.0985155 190.64697266 36.6484375 C190.65375 39.1981875 190.66265378 41.74793261 190.67352295 44.29766846 C190.6939436 50.49706663 190.69097135 56.69606874 190.67645974 62.89547205 C190.66515248 67.93528379 190.66364301 72.97501075 190.66907883 78.01483154 C190.66984499 78.73303176 190.67061116 79.45123198 190.67140054 80.19119585 C190.67299922 81.65035775 190.67462029 83.10951963 190.6762635 84.56868148 C190.69050989 98.24059299 190.67414578 111.91233667 190.64726166 125.58422065 C190.62492383 137.30688216 190.62880427 149.02929608 190.65185547 160.75195312 C190.67863318 174.37603898 190.68913669 187.99997788 190.67379415 201.62408638 C190.67220146 203.07778038 190.67062961 204.53147441 190.66907883 205.98516846 C190.66830745 206.70035153 190.66753607 207.4155346 190.66674132 208.15238988 C190.66243021 213.18420981 190.66969811 218.21593625 190.68147659 223.2477417 C190.69699121 230.02438467 190.6858931 236.80048869 190.65700531 243.57711029 C190.65039628 246.06353733 190.65228893 248.55000374 190.66331863 251.0364151 C190.67699169 254.43187078 190.65983428 257.8258309 190.63491821 261.22119141 C190.64607182 262.20407827 190.65722543 263.18696514 190.66871703 264.19963646 C190.57727806 270.62817774 189.241955 275.07165593 185 280 C178.0616739 285.85961274 168.3930738 284.53138342 159.84375 284.45410156 C158.07059769 284.45287511 156.29744342 284.45341209 154.52429199 284.45556259 C149.79038001 284.45646293 145.05687525 284.43333711 140.32305908 284.40512085 C135.8755164 284.3822836 131.42807106 284.38126528 126.98046875 284.37841797 C113.98692556 284.35745699 100.99345759 284.30161209 88 284.25 C58.96 284.1675 29.92 284.085 0 284 C0 190.28 0 96.56 0 0 Z " fill="#FDFBFB" transform="translate(198,114)"/>
<path d="M0 0 C0 93.72 0 187.44 0 284 C-53.7109375 284 -53.7109375 284 -58.64453125 279.5 C-61.70237268 275.57287255 -63.12876684 272.84922154 -63.11352539 267.89575195 C-63.11344986 267.07512772 -63.11337433 266.25450348 -63.11329651 265.40901184 C-63.10813522 264.52767075 -63.10297394 263.64632965 -63.09765625 262.73828125 C-63.0962413 261.83248825 -63.09482635 260.92669525 -63.09336853 259.99345398 C-63.08777001 257.09976909 -63.07521781 254.20616151 -63.0625 251.3125 C-63.05748481 249.35091258 -63.05292193 247.38932394 -63.04882812 245.42773438 C-63.03780107 240.61845979 -63.02053747 235.809243 -63 231 C-64.1149585 231.02827881 -64.1149585 231.02827881 -65.25244141 231.05712891 C-66.23390137 231.07179199 -67.21536133 231.08645508 -68.2265625 231.1015625 C-69.6818335 231.12984131 -69.6818335 231.12984131 -71.16650391 231.15869141 C-76.15530351 230.87929112 -79.94005101 228.96535949 -83.53125 225.5390625 C-88.12113798 220.28203964 -89.41089089 216.36911287 -89.25 209.53125 C-88.62102751 203.1629035 -85.75433048 199.07514041 -81 195 C-75.2145572 190.78965157 -69.94904938 191.78942275 -63 192 C-63 186.06 -63 180.12 -63 174 C-64.815 174.103125 -66.63 174.20625 -68.5 174.3125 C-74.67654291 174.3125 -78.3829905 173.07055185 -83 169 C-88.10197307 163.62950203 -89.48564565 158.77903272 -89.3125 151.49609375 C-88.65290241 146.22755796 -85.95974798 142.64474189 -82 139.1875 C-75.45885964 134.41791848 -71.07361043 134.82448673 -63 135 C-63 129.06 -63 123.12 -63 117 C-65.5059375 117.0928125 -65.5059375 117.0928125 -68.0625 117.1875 C-74.08233238 117.14896074 -78.4134647 116.44630146 -82.9453125 112.16015625 C-88.20036847 106.44767638 -89.42735096 102.32056431 -89.34765625 94.6015625 C-88.61055282 89.08570984 -85.42933445 85.35786773 -81.5 81.625 C-75.27905159 77.58138354 -70.26334387 77.82497967 -63 78 C-63 72.06 -63 66.12 -63 60 C-64.959375 60.12375 -66.91875 60.2475 -68.9375 60.375 C-75.88967697 60.36742682 -80.01342508 58.82537099 -85 54 C-88.63816283 50.11467937 -89.29861787 46.3071574 -89.5625 41.0625 C-89.29500445 34.15938906 -87.25446505 30.13933068 -82.34375 25.40234375 C-76.44832815 20.91832586 -70.10940427 21.51231221 -63 22 C-63.04640625 21.27554688 -63.0928125 20.55109375 -63.140625 19.8046875 C-63.37099474 13.6340694 -63.32603769 9.79371744 -59 5 C-43.27113469 -9.19434187 -21.60601482 0 0 0 Z " fill="#FEFCFC" transform="translate(191,114)"/>
<path d="M0 0 C1.53333984 -0.00386719 1.53333984 -0.00386719 3.09765625 -0.0078125 C4.16886719 -0.00007812 5.24007812 0.00765625 6.34375 0.015625 C7.95056641 0.00402344 7.95056641 0.00402344 9.58984375 -0.0078125 C10.61207031 -0.00523437 11.63429688 -0.00265625 12.6875 0 C13.62787109 0.00225586 14.56824219 0.00451172 15.53710938 0.00683594 C17.84375 0.265625 17.84375 0.265625 19.84375 2.265625 C19.46875 4.890625 19.46875 4.890625 18.84375 7.265625 C15.87375 7.265625 12.90375 7.265625 9.84375 7.265625 C9.84375 11.225625 9.84375 15.185625 9.84375 19.265625 C10.730625 19.183125 11.6175 19.100625 12.53125 19.015625 C24.54731901 19.08844966 35.79328842 25.51721578 44.53125 33.328125 C51.9015605 41.19691061 57.5824309 51.94869011 57.96875 62.765625 C57.9275 63.590625 57.88625 64.415625 57.84375 65.265625 C58.9575 65.224375 60.07125 65.183125 61.21875 65.140625 C64.84375 65.265625 64.84375 65.265625 66.84375 67.265625 C66.45204645 72.57810441 64.54767811 77.56680812 62.84375 82.578125 C62.57046875 83.40119141 62.2971875 84.22425781 62.015625 85.07226562 C59.97740683 91.13196817 59.97740683 91.13196817 58.84375 92.265625 C57.47766674 92.36097713 56.10669545 92.3875117 54.73728943 92.38587952 C53.85242859 92.38725418 52.96756775 92.38862885 52.05589294 92.39004517 C50.58854454 92.38465225 50.58854454 92.38465225 49.09155273 92.37915039 C48.0672818 92.37929642 47.04301086 92.37944244 45.98770142 92.3795929 C42.58422771 92.37889328 39.18080796 92.37109863 35.77734375 92.36328125 C33.42464732 92.36141724 31.0719505 92.35999326 28.71925354 92.35899353 C22.51318295 92.35516699 16.3071356 92.34533555 10.10107422 92.33428955 C3.77376622 92.32407834 -2.55354552 92.31949654 -8.88085938 92.31445312 C-21.30599982 92.3037134 -33.73112298 92.28663536 -46.15625 92.265625 C-48.41497884 87.83296734 -50.3098847 83.41193035 -51.90625 78.703125 C-52.13957031 78.05666016 -52.37289062 77.41019531 -52.61328125 76.74414062 C-53.92429123 72.88568911 -54.46518917 70.17062684 -53.15625 66.265625 C-52.15625 65.265625 -52.15625 65.265625 -48.59375 65.203125 C-47.459375 65.22375 -46.325 65.244375 -45.15625 65.265625 C-45.16978516 64.31816406 -45.16978516 64.31816406 -45.18359375 63.3515625 C-44.78065667 51.19337399 -38.80445976 40.97166406 -30.46484375 32.37890625 C-22.61565208 25.19377479 -12.29380825 18.96852466 -1.40625 18.953125 C-0.00375 19.05625 1.39875 19.159375 2.84375 19.265625 C2.84375 15.305625 2.84375 11.345625 2.84375 7.265625 C-0.12625 7.265625 -3.09625 7.265625 -6.15625 7.265625 C-6.78125 4.890625 -6.78125 4.890625 -7.15625 2.265625 C-4.58636319 -0.30426181 -3.56714947 0.00855725 0 0 Z " fill="#AE2B1A" transform="translate(283.15625,139.734375)"/>
<path d="M0 0 C6.35369696 -0.4538355 10.6993206 0.34476431 16 4 C19.49882572 7.76796616 21.12337494 10.20925333 21.13142776 15.30546951 C21.13526891 16.21491766 21.13911005 17.12436581 21.1430676 18.061373 C21.14220112 19.0669921 21.14133463 20.0726112 21.14044189 21.10870361 C21.14341302 22.17198623 21.14638414 23.23526886 21.1494453 24.33077216 C21.15816312 27.9174627 21.15964314 31.50411999 21.16113281 35.09082031 C21.16575882 37.65277681 21.17078319 40.21473262 21.17617798 42.77668762 C21.18932529 49.75402252 21.19578797 56.73134641 21.20018864 63.7086916 C21.20294949 68.06433802 21.20718659 72.41998222 21.21169281 76.77562714 C21.22388764 88.83172084 21.23418609 100.88781276 21.2375679 112.94391251 C21.23778747 113.71587943 21.23800703 114.48784635 21.23823325 115.28320621 C21.23845153 116.05703868 21.23866981 116.83087115 21.2388947 117.62815309 C21.23933817 119.19627524 21.23978473 120.76439738 21.24023438 122.33251953 C21.2404558 123.11036512 21.24067723 123.88821071 21.24090537 124.68962738 C21.2448529 137.29196689 21.26230458 149.89424856 21.2855939 162.49656573 C21.30930386 175.43078227 21.32176961 188.36496978 21.32293582 201.2992084 C21.32385285 208.5630424 21.32961214 215.82680106 21.34775543 223.09061432 C21.36476032 229.92284096 21.36641166 236.75492234 21.35761642 243.58716393 C21.35684382 246.09701355 21.36121797 248.60687074 21.37107468 251.11670113 C21.38372851 254.53909337 21.37795271 257.96097356 21.36749268 261.38336182 C21.37554908 262.38005803 21.38360548 263.37675425 21.39190602 264.40365338 C21.3540246 269.6915369 20.99667073 273.44426153 18 278 C12.0333041 283.50771929 7.82624869 284.23018379 0 284 C0.53035719 283.00450869 0.53035719 283.00450869 1.07142866 281.98890644 C4.54897697 275.01220626 5.72263641 269.50231333 5.63491821 261.75999451 C5.64271817 260.68367722 5.65051812 259.60735994 5.65855443 258.49842697 C5.67836896 254.92103934 5.66275031 251.34472798 5.64697266 247.76733398 C5.65375336 245.19083031 5.66265903 242.61433149 5.67352295 240.0378418 C5.69567667 233.78407463 5.69098981 227.53060865 5.67645974 221.27683001 C5.66513732 216.19181759 5.66364952 211.10688918 5.66907883 206.02186775 C5.66984499 205.29632536 5.67061116 204.57078298 5.67140054 203.82325445 C5.67299927 202.34903762 5.67462034 200.87482081 5.6762635 199.40060402 C5.69049767 185.59938118 5.67416448 171.7983248 5.64726166 157.99712927 C5.62492022 146.16995929 5.62880964 134.34303471 5.65185547 122.51586914 C5.67864665 108.76026454 5.68912956 95.00480552 5.67379415 81.24917847 C5.67220151 79.78089116 5.67062965 78.31260383 5.66907883 76.84431648 C5.66792176 75.76085296 5.66792176 75.76085296 5.66674132 74.65550129 C5.6624346 69.57950193 5.66968849 64.50359538 5.68147659 59.4276104 C5.69700914 52.58937823 5.68586326 45.75161604 5.65700531 38.91342926 C5.65040522 36.40687642 5.65227361 33.90028452 5.66331863 31.39374733 C5.67702695 27.96631676 5.6597918 24.54035913 5.63491821 21.11302185 C5.64607182 20.12633418 5.65722543 19.13964651 5.66871703 18.12305921 C5.56943358 11.0472109 3.61094719 6.05563248 0 0 Z " fill="#FEFDFD" transform="translate(389,114)"/>
<path d="M0 0 C20.46 0 40.92 0 62 0 C62 12.87 62 25.74 62 39 C41.54 39 21.08 39 0 39 C0 26.13 0 13.26 0 0 Z " fill="#FDFBFB" transform="translate(220,279)"/>
<path d="M0 0 C0.69933655 -0.00335861 1.3986731 -0.00671722 2.11920166 -0.01017761 C4.43625655 -0.0196948 6.75323927 -0.02163098 9.0703125 -0.02270508 C10.67692088 -0.02591667 12.28352896 -0.02928066 13.89013672 -0.03279114 C17.25944701 -0.038784 20.62873163 -0.04063083 23.99804688 -0.04003906 C28.3226892 -0.03993733 32.64716777 -0.05360068 36.97177124 -0.07081127 C40.28996543 -0.08190947 43.60811972 -0.08395896 46.92633057 -0.08342934 C48.52118495 -0.08461232 50.11604028 -0.08905184 51.71087646 -0.0967617 C53.93757739 -0.10651966 56.16391873 -0.10370063 58.390625 -0.09765625 C59.65922363 -0.09908127 60.92782227 -0.10050629 62.23486328 -0.10197449 C65.1953125 0.14526367 65.1953125 0.14526367 67.1953125 2.14526367 C67.44927979 4.23254395 67.44927979 4.23254395 67.45410156 6.83862305 C67.46040588 7.81303345 67.46671021 8.78744385 67.47320557 9.79138184 C67.4691571 10.84660034 67.46510864 11.90181885 67.4609375 12.98901367 C67.46285095 14.06904663 67.4647644 15.14907959 67.46673584 16.26184082 C67.46809857 18.54834221 67.46439602 20.83485131 67.45605469 23.12133789 C67.44535662 26.63079122 67.45594723 30.13973261 67.46875 33.64916992 C67.46742842 35.86661897 67.46486606 38.08406771 67.4609375 40.30151367 C67.46498596 41.35673218 67.46903442 42.41195068 67.47320557 43.49914551 C67.46374908 44.96076111 67.46374908 44.96076111 67.45410156 46.4519043 C67.45251038 47.3119104 67.45091919 48.1719165 67.44927979 49.0579834 C67.1953125 51.14526367 67.1953125 51.14526367 65.1953125 53.14526367 C62.23486328 53.39923096 62.23486328 53.39923096 58.390625 53.40405273 C57.34162018 53.40930969 57.34162018 53.40930969 56.27142334 53.41467285 C53.95428612 53.42349243 51.63745295 53.41764037 49.3203125 53.41088867 C47.71370383 53.41223526 46.10709555 53.41417574 44.50048828 53.41668701 C41.13114548 53.41963858 37.76190863 53.41533964 34.39257812 53.40600586 C30.06791756 53.39461125 25.74350521 53.40117056 21.41885376 53.41315079 C18.1006482 53.42036855 14.78250175 53.41808186 11.46429443 53.4128952 C9.8694455 53.41155847 8.27459125 53.41320725 6.67974854 53.41785431 C4.45302052 53.42291823 2.22669774 53.41521155 0 53.40405273 C-1.90289795 53.40166595 -1.90289795 53.40166595 -3.84423828 53.39923096 C-6.8046875 53.14526367 -6.8046875 53.14526367 -8.8046875 51.14526367 C-9.04519653 49.00656128 -9.04519653 49.00656128 -9.03173828 46.32836914 C-9.03158722 45.3274826 -9.03143616 44.32659607 -9.03128052 43.29537964 C-9.02095795 42.21201324 -9.01063538 41.12864685 -9 40.01245117 C-8.9971701 38.90547882 -8.99434021 37.79850647 -8.99142456 36.6579895 C-8.98020269 33.1119723 -8.95509441 29.56620492 -8.9296875 26.02026367 C-8.9196603 23.62052773 -8.910534 21.22078784 -8.90234375 18.82104492 C-8.88025682 12.92903217 -8.84675957 7.03716576 -8.8046875 1.14526367 C-5.87283077 -0.32066469 -3.27354905 0.00983614 0 0 Z M-1.8046875 7.14526367 C-1.8046875 20.01526367 -1.8046875 32.88526367 -1.8046875 46.14526367 C18.6553125 46.14526367 39.1153125 46.14526367 60.1953125 46.14526367 C60.1953125 33.27526367 60.1953125 20.40526367 60.1953125 7.14526367 C39.7353125 7.14526367 19.2753125 7.14526367 -1.8046875 7.14526367 Z " fill="#AC2716" transform="translate(221.8046875,271.854736328125)"/>
<path d="M0 0 C1.45539185 0.00858032 1.45539185 0.00858032 2.94018555 0.01733398 C14.88068812 0.31313257 24.65920951 4.01506146 33.3125 12.5 C39.73674242 19.77272727 39.73674242 19.77272727 41.3125 24.5 C14.5825 24.5 -12.1475 24.5 -39.6875 24.5 C-33.79292543 12.71085086 -25.34955081 5.60691475 -12.95849609 1.11083984 C-8.67982888 -0.04001216 -4.40720446 -0.03013147 0 0 Z " fill="#FEFDFC" transform="translate(288.6875,165.5)"/>
<path d="M0 0 C33.99 0 67.98 0 103 0 C100 12 100 12 99 13 C96.04753646 13.09526806 93.11851579 13.12552452 90.16577148 13.11352539 C89.23903625 13.11367142 88.31230103 13.11381744 87.35748291 13.1139679 C84.27866313 13.11326838 81.19990303 13.10547421 78.12109375 13.09765625 C75.99259982 13.09579221 73.86410547 13.09436824 71.73561096 13.09336853 C66.1213768 13.08954228 60.50716832 13.07971108 54.89294434 13.06866455 C49.16886747 13.05845273 43.44478647 13.0538714 37.72070312 13.04882812 C26.48045744 13.03808891 15.24023085 13.0210112 4 13 C2.26436339 8.54771478 0.94389853 4.71949266 0 0 Z " fill="#FBF6F5" transform="translate(238,212)"/>
<path d="M0 0 C36.96 0 73.92 0 112 0 C112.495 2.475 112.495 2.475 113 5 C110.55860927 7.44139073 109.94391338 7.25083888 106.59692383 7.25396729 C105.67150787 7.25960693 104.74609192 7.26524658 103.79263306 7.27105713 C102.77438446 7.26700867 101.75613586 7.26296021 100.70703125 7.25878906 C99.63705902 7.2622937 98.56708679 7.26579834 97.46469116 7.26940918 C93.91389554 7.27824019 90.36329779 7.27237245 86.8125 7.265625 C84.35392213 7.26697125 81.89534453 7.26891145 79.43676758 7.27142334 C74.27845735 7.27437646 69.12021627 7.27007088 63.96191406 7.26074219 C57.33698523 7.24934761 50.71221842 7.25590607 44.08729553 7.26788712 C39.00881725 7.27510061 33.93037762 7.27282013 28.85189819 7.26763153 C26.40855897 7.26629362 23.96521628 7.26794766 21.5218811 7.27259064 C18.11214852 7.27764745 14.70268146 7.2699574 11.29296875 7.25878906 C9.76559586 7.26486176 9.76559586 7.26486176 8.20736694 7.27105713 C7.28195099 7.26541748 6.35653503 7.25977783 5.40307617 7.25396729 C4.59633957 7.25321323 3.78960297 7.25245918 2.9584198 7.25168228 C1 7 1 7 -1 5 C-0.67 3.35 -0.34 1.7 0 0 Z " fill="#AF2E1D" transform="translate(214,365)"/>
<path d="M0 0 C1.22644557 0.00138269 1.22644557 0.00138269 2.47766781 0.00279331 C3.88068645 0.00073132 3.88068645 0.00073132 5.31204891 -0.00137234 C6.34638561 0.00222294 7.38072231 0.00581821 8.44640255 0.00952244 C9.52919491 0.00937641 10.61198727 0.00923038 11.72759151 0.00907993 C15.32585778 0.0097796 18.92407301 0.0175745 22.52233028 0.02539158 C25.00954822 0.02725557 27.49676652 0.02867956 29.98398495 0.0296793 C35.87363594 0.03311433 41.76326794 0.04100506 47.65291113 0.05102879 C55.01367777 0.06328536 62.37444668 0.06866992 69.73522091 0.0742197 C82.87129802 0.08495968 96.00735986 0.10184693 109.14342403 0.12304783 C109.76842403 2.49804783 109.76842403 2.49804783 110.14342403 5.12304783 C107.7020333 7.56443856 107.08733741 7.37388671 103.74034786 7.37701511 C102.81493191 7.38265476 101.88951595 7.38829441 100.93605709 7.39410496 C99.91780849 7.3900565 98.8995599 7.38600803 97.85045528 7.38183689 C96.78048306 7.38534153 95.71051083 7.38884617 94.6081152 7.39245701 C91.05731958 7.40128802 87.50672182 7.39542028 83.95592403 7.38867283 C81.49734617 7.39001908 79.03876856 7.39195928 76.58019161 7.39447117 C71.42188138 7.39742429 66.26364031 7.39311871 61.1053381 7.38379002 C54.48040926 7.37239544 47.85564245 7.3789539 41.23071957 7.39093494 C36.15224128 7.39814844 31.07380165 7.39586796 25.99532223 7.39067936 C23.551983 7.38934145 21.10864032 7.39099549 18.66530514 7.39563847 C15.25557256 7.40069528 11.8461055 7.39300523 8.43639278 7.38183689 C6.90901989 7.38790958 6.90901989 7.38790958 5.35079098 7.39410496 C4.42537502 7.38846531 3.49995907 7.38282566 2.54650021 7.37701511 C1.7397636 7.37626106 0.933027 7.37550701 0.10184383 7.37473011 C-1.85657597 7.12304783 -1.85657597 7.12304783 -3.85657597 5.12304783 C-3.11160311 0.20622695 -3.11160311 0.20622695 0 0 Z " fill="#AD2817" transform="translate(255.85657596588135,341.8769521713257)"/>
<path d="M0 0 C0.92404129 -0.00426498 1.84808258 -0.00852997 2.80012512 -0.01292419 C3.82196899 -0.01247101 4.84381287 -0.01201782 5.8966217 -0.0115509 C6.96644791 -0.01490952 8.03627411 -0.01826813 9.13851929 -0.02172852 C12.69469852 -0.03127095 16.25083084 -0.03318326 19.80702209 -0.03425598 C22.26702901 -0.0374662 24.72703573 -0.04083009 27.18704224 -0.04434204 C32.35130761 -0.05034152 37.51555622 -0.0521811 42.67982483 -0.05158997 C49.31261752 -0.05148828 55.94530331 -0.06514343 62.57807064 -0.08236217 C67.6608327 -0.09345474 72.7435687 -0.09551002 77.82634163 -0.09498024 C80.2724755 -0.0961644 82.71860995 -0.10061035 85.16473198 -0.10831261 C88.57934534 -0.11805753 91.99372369 -0.11525629 95.40834045 -0.10920715 C96.4281601 -0.11482666 97.44797974 -0.12044617 98.498703 -0.12623596 C99.42556412 -0.12204147 100.35242523 -0.11784698 101.30737305 -0.11352539 C102.51942618 -0.11434254 102.51942618 -0.11434254 103.75596523 -0.1151762 C105.71717834 0.13371277 105.71717834 0.13371277 107.71717834 2.13371277 C107.34217834 4.75871277 107.34217834 4.75871277 106.71717834 7.13371277 C92.27913303 7.18039255 77.84109939 7.21554896 63.40299416 7.23733711 C56.69942836 7.2476584 49.9959094 7.26173494 43.29237366 7.28459167 C36.82795589 7.30625864 30.36358686 7.31826839 23.89913559 7.32346725 C21.42787788 7.32717409 18.95662296 7.33441216 16.48538589 7.34517288 C13.0347585 7.35960609 9.58433477 7.36169414 6.13368225 7.36076355 C5.10294083 7.3679541 4.0721994 7.37514465 3.01022339 7.3825531 C2.07350296 7.37980377 1.13678253 7.37705444 0.17167664 7.3742218 C-0.64503195 7.37606539 -1.46174053 7.37790897 -2.30319786 7.37980843 C-4.28282166 7.13371277 -4.28282166 7.13371277 -6.28282166 5.13371277 C-5.57095469 0.43539083 -4.56032622 0.00946241 0 0 Z " fill="#AE2C1B" transform="translate(258.28282165527344,248.8662872314453)"/>
<path d="M0 0 C28.71 0 57.42 0 87 0 C88 2 88 2 88 8 C58.63 8 29.26 8 -1 8 C-1 2 -1 2 0 0 Z " fill="#FBF5F4" transform="translate(246,197)"/>
<path d="M0 0 C5.55714644 1.91442365 9.3229282 5.66877075 12.15234375 10.76171875 C14.26678585 16.34501516 13.78847854 21.88480606 11.4375 27.3125 C8.60565187 32.3086892 4.37660152 35.20779949 -1 37 C-8.26405856 37.94075512 -13.29087722 37.18172439 -19.18359375 32.72265625 C-21.63299442 30.39967626 -22.93540527 28.19378418 -24 25 C-24 24.01 -24 23.02 -24 22 C-20.8125 21.625 -20.8125 21.625 -17 22 C-14.91444836 23.79919351 -13.62066581 25.73106786 -12 28 C-8.93570224 29.53214888 -6.3834358 29.22938548 -3 29 C1.14623807 27.20957902 3.17613802 25.12768764 5 21 C5.4430062 17.45595039 5.23046098 15.50701415 3.75 12.25 C1.47791813 9.32875188 -0.53806551 8.24845041 -4.18359375 7.62890625 C-8.61365149 7.49838462 -10.3991145 7.52429898 -14 10.375 C-15.97988444 12.80449083 -15.97988444 12.80449083 -17 15 C-19.31 15 -21.62 15 -24 15 C-23.61006749 9.54094483 -21.79523957 6.88149502 -18 3 C-12.33667357 -1.08964053 -6.74615366 -0.84836757 0 0 Z " fill="#AF2E1C" transform="translate(169,266)"/>
<path d="M0 0 C4.94754234 2.84458286 7.84443678 7.09581034 9.625 12.4375 C10.40896339 18.95339241 9.41173329 24.03313308 5.625 29.4375 C-0.25311488 35.02170914 -5.1233127 36.00325498 -13.1015625 35.88671875 C-19.28820299 35.03771677 -22.70975898 31.62312884 -26.375 26.8125 C-27.375 24.4375 -27.375 24.4375 -27.375 20.4375 C-24.0625 20.125 -24.0625 20.125 -20.375 20.4375 C-18.625 22.8125 -18.625 22.8125 -17.375 25.4375 C-14.26513793 27.51074138 -13.48391613 27.71142186 -9.9375 27.6875 C-9.17566406 27.69265625 -8.41382813 27.6978125 -7.62890625 27.703125 C-5.10294825 27.40543844 -3.5235892 26.78725476 -1.375 25.4375 C0.98730491 22.01623083 1.88336526 19.4073519 1.5625 15.3125 C0.58605281 11.27651829 -0.08348138 9.85773428 -3.375 7.4375 C-7.02788193 6.21987269 -9.53254136 6.04674149 -13.375 6.4375 C-16.35051795 8.21353298 -18.80255188 10.29260377 -20.375 13.4375 C-22.685 13.4375 -24.995 13.4375 -27.375 13.4375 C-26.91953941 8.54129869 -25.86397047 5.92647047 -22.375 2.4375 C-15.63644791 -2.65079443 -7.83336486 -3.42061868 0 0 Z " fill="#AE2D1C" transform="translate(172.375,210.5625)"/>
<path d="M0 0 C4.40985125 3.14224219 7.94548364 6.64895091 9.6875 11.875 C10.47023567 18.38068825 9.51247152 23.50126701 5.6875 28.875 C2.36806485 32.37194505 -1.54751144 35.42802817 -6.390625 36.2109375 C-12.93665373 36.32867183 -17.96429355 34.90749468 -22.88671875 30.44921875 C-25.5855813 27.45649724 -26.95836837 24.88849176 -27.3125 20.875 C-24.0625 20.5625 -24.0625 20.5625 -20.3125 20.875 C-18 23.3125 -18 23.3125 -16.3125 25.875 C-12.59796768 27.73226616 -8.35670575 27.46001089 -4.3125 26.875 C-1.48825712 24.68477082 0.10258603 23.04482793 1.6875 19.875 C2.13158691 15.9670352 1.82454844 14.12951854 -0.0625 10.625 C-3.0352211 6.99167421 -4.59025915 6.09964011 -9.1875 5.5 C-13.15737514 5.97638502 -15.20786536 7.40540426 -18.3125 9.875 C-19.3025 11.36 -19.3025 11.36 -20.3125 12.875 C-23.9375 13.0625 -23.9375 13.0625 -27.3125 12.875 C-26.53363578 7.0027737 -23.48391275 3.86699715 -19.3125 -0.125 C-13.68657826 -3.77424654 -5.66328223 -3.33575904 0 0 Z " fill="#AE2D1C" transform="translate(172.3125,154.125)"/>
<path d="M0 0 C5.44736297 3.20969156 9.26542383 7.20488408 11.7890625 13.05078125 C12.81381142 19.39343773 11.94890656 24.1368472 8.21875 29.36328125 C4.83080414 33.36216817 0.71865226 36.67853965 -4.578125 37.3515625 C-10.78293484 37.38055694 -15.17698883 36.94195587 -19.87109375 32.46875 C-22.88040727 29.20332469 -24.93229255 26.64842293 -25.2109375 22.05078125 C-21.9609375 21.73828125 -21.9609375 21.73828125 -18.2109375 22.05078125 C-16.0234375 24.42578125 -16.0234375 24.42578125 -14.2109375 27.05078125 C-10.94159472 29.33932119 -8.1411223 29.52240343 -4.2109375 29.05078125 C-1.14622448 27.40055116 1.09685157 25.99470525 3.1640625 23.17578125 C4.02761788 20.23969297 4.15564459 18.10563199 3.7890625 15.05078125 C1.5131802 10.82596379 1.5131802 10.82596379 -2.2109375 8.05078125 C-5.5967909 7.63129499 -8.83162181 7.55663603 -12.2109375 8.05078125 C-15.29892424 10.30135692 -15.29892424 10.30135692 -17.2109375 13.05078125 C-18.2109375 14.05078125 -18.2109375 14.05078125 -21.7734375 14.11328125 C-22.9078125 14.09265625 -24.0421875 14.07203125 -25.2109375 14.05078125 C-24.88963746 8.74933057 -21.98507547 5.50117827 -18.2109375 2.05078125 C-12.50656599 -1.28573794 -6.23277056 -2.67590679 0 0 Z " fill="#AE2D1C" transform="translate(170.2109375,322.94921875)"/>
<path d="M0 0 C1.8569751 -0.00472824 1.8569751 -0.00472824 3.75146484 -0.009552 C5.11295609 -0.00776222 6.47444701 -0.00571127 7.8359375 -0.00341797 C9.22216814 -0.00409106 10.60839867 -0.00506113 11.99462891 -0.00631714 C14.90333172 -0.00779387 17.81200387 -0.00564037 20.72070312 -0.00097656 C24.45690348 0.00472073 28.19303202 0.00144159 31.92922974 -0.00454903 C34.79273016 -0.00815532 37.65621343 -0.00701574 40.51971436 -0.00442123 C41.89768482 -0.00375215 43.27565682 -0.00457973 44.65362549 -0.00690079 C46.57637504 -0.00942839 48.49913002 -0.0048957 50.421875 0 C52.06615479 0.00119339 52.06615479 0.00119339 53.74365234 0.00241089 C56.2109375 0.12939453 56.2109375 0.12939453 57.2109375 1.12939453 C57.3359375 3.62939453 57.3359375 3.62939453 57.2109375 6.12939453 C55.43177283 7.9085592 52.82780451 7.25704288 50.421875 7.25878906 C49.1838916 7.26194122 47.9459082 7.26509338 46.67041016 7.26834106 C45.30891891 7.26655128 43.94742799 7.26450033 42.5859375 7.26220703 C41.19970686 7.26288012 39.81347633 7.26385019 38.42724609 7.2651062 C35.51854328 7.26658293 32.60987113 7.26442943 29.70117188 7.25976562 C25.96497152 7.25406834 22.22884298 7.25734748 18.49264526 7.26333809 C15.62914484 7.26694438 12.76566157 7.2658048 9.90216064 7.2632103 C8.52419018 7.26254122 7.14621818 7.2633688 5.76824951 7.26568985 C3.84549996 7.26821745 1.92274498 7.26368477 0 7.25878906 C-1.64427979 7.25759567 -1.64427979 7.25759567 -3.32177734 7.25637817 C-5.7890625 7.12939453 -5.7890625 7.12939453 -6.7890625 6.12939453 C-6.9140625 3.62939453 -6.9140625 3.62939453 -6.7890625 1.12939453 C-5.00989783 -0.64977014 -2.40592951 0.00174618 0 0 Z " fill="#AC2715" transform="translate(308.7890625,294.87060546875)"/>
<path d="M0 0 C0 8.25 0 16.5 0 25 C-10.59459459 25 -10.59459459 25 -16 21 C-18.87875828 17.65692587 -19.63913532 14.50069478 -19.49609375 10.06640625 C-18.57136894 6.21459974 -15.89231952 3.58510424 -13 1 C-11 0 -11 0 0 0 Z " fill="#AF301F" transform="translate(128,313)"/>
<path d="M0 0 C0 8.25 0 16.5 0 25 C-11.56756757 25 -11.56756757 25 -16 21 C-18.37302167 18.07327328 -18.95966626 16.31690796 -19.4375 12.5625 C-18.80317988 7.39732186 -16.73202252 4.52825517 -12.875 1.125 C-10 0 -10 0 0 0 Z " fill="#AF2F1D" transform="translate(128,256)"/>
<path d="M0 0 C0 8.25 0 16.5 0 25 C-11 25 -11 25 -14.5625 22.75 C-17.7977944 19.09992426 -18.83568189 17.478863 -19.375 12.625 C-18.83451794 7.40034009 -16.7637288 4.55623129 -12.875 1.125 C-10 0 -10 0 0 0 Z " fill="#AF2F1E" transform="translate(128,199)"/>
<path d="M0 0 C0 7.92 0 15.84 0 24 C-12.22222222 24 -12.22222222 24 -16.7578125 19.60546875 C-19.51922998 16.03646691 -19.29821143 12.32406575 -19 8 C-17.71378621 5.02139964 -16.393203 3.35634022 -14 1.1875 C-11 0 -11 0 0 0 Z " fill="#AE2C1B" transform="translate(128,143)"/>
<path d="M0 0 C1.05617271 -0.0049926 1.05617271 -0.0049926 2.13368225 -0.01008606 C3.62581731 -0.0151578 5.11796375 -0.01749431 6.61010742 -0.01733398 C8.89716232 -0.01951884 11.18373378 -0.03766674 13.47070312 -0.05664062 C14.91796709 -0.05957479 16.36523336 -0.06155943 17.8125 -0.0625 C18.49900131 -0.06968552 19.18550262 -0.07687103 19.89280701 -0.08427429 C24.74383256 -0.06085494 24.74383256 -0.06085494 26.97265625 2.16796875 C26.43694196 5.70368304 26.43694196 5.70368304 24.97265625 7.16796875 C22.60867157 7.26874995 20.27454314 7.3077009 17.91015625 7.30078125 C17.20366943 7.30173798 16.49718262 7.3026947 15.76928711 7.30368042 C14.27294832 7.30436208 12.77660658 7.3025088 11.28027344 7.29833984 C8.98235468 7.29299132 6.68463139 7.29828526 4.38671875 7.3046875 C2.93619748 7.30402672 1.48567634 7.30274555 0.03515625 7.30078125 C-1.00233765 7.3038176 -1.00233765 7.3038176 -2.06079102 7.30691528 C-6.91239151 7.28292099 -6.91239151 7.28292099 -8.02734375 6.16796875 C-8.15234375 3.66796875 -8.15234375 3.66796875 -8.02734375 1.16796875 C-6.11444757 -0.74492743 -2.60510292 0.00421048 0 0 Z " fill="#AD2A19" transform="translate(310.02734375,317.83203125)"/>
<path d="M0 0 C1.05617271 -0.0049926 1.05617271 -0.0049926 2.13368225 -0.01008606 C3.62581731 -0.0151578 5.11796375 -0.01749431 6.61010742 -0.01733398 C8.89716232 -0.01951884 11.18373378 -0.03766674 13.47070312 -0.05664062 C14.91796709 -0.05957479 16.36523336 -0.06155943 17.8125 -0.0625 C18.49900131 -0.06968552 19.18550262 -0.07687103 19.89280701 -0.08427429 C24.74383256 -0.06085494 24.74383256 -0.06085494 26.97265625 2.16796875 C26.43694196 5.70368304 26.43694196 5.70368304 24.97265625 7.16796875 C22.60867157 7.26874995 20.27454314 7.3077009 17.91015625 7.30078125 C17.20366943 7.30173798 16.49718262 7.3026947 15.76928711 7.30368042 C14.27294832 7.30436208 12.77660658 7.3025088 11.28027344 7.29833984 C8.98235468 7.29299132 6.68463139 7.29828526 4.38671875 7.3046875 C2.93619748 7.30402672 1.48567634 7.30274555 0.03515625 7.30078125 C-1.00233765 7.3038176 -1.00233765 7.3038176 -2.06079102 7.30691528 C-6.91239151 7.28292099 -6.91239151 7.28292099 -8.02734375 6.16796875 C-8.15234375 3.66796875 -8.15234375 3.66796875 -8.02734375 1.16796875 C-6.11444757 -0.74492743 -2.60510292 0.00421048 0 0 Z " fill="#AD2A18" transform="translate(310.02734375,271.83203125)"/>
<path d="M0 0 C4.47915328 -0.02886338 8.95828291 -0.04675187 13.4375 -0.0625 C14.71689453 -0.07087891 15.99628906 -0.07925781 17.31445312 -0.08789062 C19.13686523 -0.09272461 19.13686523 -0.09272461 20.99609375 -0.09765625 C22.12200928 -0.10289307 23.2479248 -0.10812988 24.40795898 -0.11352539 C27 0 27 0 28 1 C28.04063832 2.66617115 28.042721 4.33388095 28 6 C23.76620814 8.11689593 18.15160218 7.18493005 13.5 7.1875 C12.33339844 7.19974609 11.16679687 7.21199219 9.96484375 7.22460938 C8.29615234 7.22750977 8.29615234 7.22750977 6.59375 7.23046875 C5.56958984 7.23457764 4.54542969 7.23868652 3.49023438 7.24291992 C1 7 1 7 -1 5 C-0.625 2.375 -0.625 2.375 0 0 Z " fill="#AD2917" transform="translate(214,342)"/>
<path d="M0 0 C1.53624023 0.00616333 1.53624023 0.00616333 3.10351562 0.01245117 C4.21597656 0.01438477 5.3284375 0.01631836 6.47460938 0.01831055 C8.22451172 0.03667969 8.22451172 0.03667969 10.00976562 0.05541992 C11.75966797 0.05638672 11.75966797 0.05638672 13.54492188 0.05737305 C22.22923833 0.10265627 22.22923833 0.10265627 24.50976562 1.24291992 C24.55248663 2.90903897 24.55040395 4.57674877 24.50976562 6.24291992 C23.50976562 7.24291992 23.50976562 7.24291992 20.91772461 7.35644531 C19.79180908 7.3512085 18.66589355 7.34597168 17.50585938 7.34057617 C16.29091797 7.33735352 15.07597656 7.33413086 13.82421875 7.33081055 C12.54482422 7.32243164 11.26542969 7.31405273 9.94726562 7.30541992 C8.66400391 7.3009082 7.38074219 7.29639648 6.05859375 7.29174805 C2.8756054 7.27991538 -0.307292 7.2634306 -3.49023438 7.24291992 C-4.11523438 4.86791992 -4.11523438 4.86791992 -4.49023438 2.24291992 C-2.49023438 0.24291992 -2.49023438 0.24291992 0 0 Z " fill="#AE2D1B" transform="translate(217.490234375,248.757080078125)"/>
<path d="M0 0 C8.91 0 17.82 0 27 0 C27.33 1.65 27.66 3.3 28 5 C25.35300384 7.64699616 24.09605591 7.25749767 20.40625 7.265625 C19.29378906 7.26820313 18.18132812 7.27078125 17.03515625 7.2734375 C15.86855469 7.26570313 14.70195312 7.25796875 13.5 7.25 C12.33339844 7.25773437 11.16679687 7.26546875 9.96484375 7.2734375 C8.85238281 7.27085937 7.73992187 7.26828125 6.59375 7.265625 C5.56958984 7.26336914 4.54542969 7.26111328 3.49023438 7.25878906 C1 7 1 7 -1 5 C-0.67 3.35 -0.34 1.7 0 0 Z " fill="#AF2E1D" transform="translate(338,365)"/>
<path d="M0 0 C0.87454834 0.00523682 1.74909668 0.01047363 2.65014648 0.01586914 C3.59438477 0.0190918 4.53862305 0.02231445 5.51147461 0.02563477 C6.50469727 0.03401367 7.49791992 0.04239258 8.52124023 0.05102539 C9.51833008 0.05553711 10.51541992 0.06004883 11.54272461 0.06469727 C14.01478872 0.07652532 16.48673541 0.0930069 18.95874023 0.11352539 C19.58374023 2.48852539 19.58374023 2.48852539 19.95874023 5.11352539 C17.50887092 7.56339471 16.82166223 7.3698385 13.45874023 7.37915039 C12.57186523 7.38172852 11.68499023 7.38430664 10.77124023 7.38696289 C9.37905273 7.37536133 9.37905273 7.37536133 7.95874023 7.36352539 C7.03061523 7.37125977 6.10249023 7.37899414 5.14624023 7.38696289 C3.81592773 7.3830957 3.81592773 7.3830957 2.45874023 7.37915039 C1.64405273 7.37689453 0.82936523 7.37463867 -0.01000977 7.37231445 C-2.04125977 7.11352539 -2.04125977 7.11352539 -4.04125977 5.11352539 C-3.29424235 0.18321046 -3.29424235 0.18321046 0 0 Z " fill="#AE2B1A" transform="translate(346.041259765625,317.886474609375)"/>
<path d="M0 0 C1.39895508 -0.01836914 1.39895508 -0.01836914 2.82617188 -0.03710938 C4.16325195 -0.04000977 4.16325195 -0.04000977 5.52734375 -0.04296875 C6.348396 -0.04707764 7.16944824 -0.05118652 8.01538086 -0.05541992 C10.0625 0.1875 10.0625 0.1875 12.0625 2.1875 C11.6875 4.8125 11.6875 4.8125 11.0625 7.1875 C7.60423658 7.24539006 4.14609707 7.28105821 0.6875 7.3125 C-0.29734375 7.32925781 -1.2821875 7.34601563 -2.296875 7.36328125 C-3.23789062 7.36972656 -4.17890625 7.37617188 -5.1484375 7.3828125 C-6.45240479 7.39852295 -6.45240479 7.39852295 -7.78271484 7.41455078 C-9.9375 7.1875 -9.9375 7.1875 -11.9375 5.1875 C-10.88648176 -1.74922037 -5.90844785 0.00406638 0 0 Z " fill="#AE2B1A" transform="translate(353.9375,271.8125)"/>
</svg>
